<?xml version="1.0" standalone="no"?>
<!DOCTYPE svg PUBLIC "-//W3C//DTD SVG 20010904//EN"
 "http://www.w3.org/TR/2001/REC-SVG-20010904/DTD/svg10.dtd">
<svg version="1.0" xmlns="http://www.w3.org/2000/svg"
 width="512.000000pt" height="512.000000pt" viewBox="0 0 512.000000 512.000000"
 preserveAspectRatio="xMidYMid meet">

<g transform="translate(0.000000,512.000000) scale(0.100000,-0.100000)"
fill="#000000" stroke="none">
<path d="M1116 5104 c-240 -58 -416 -281 -416 -527 1 -126 235 -2198 250
-2207 16 -10 360 -65 530 -85 703 -83 1531 -83 2240 0 166 20 514 75 530 85 8
5 51 353 132 1071 130 1157 132 1192 89 1314 -62 172 -221 313 -398 350 -101
22 -2869 20 -2957 -1z"/>
<path d="M545 2271 c-127 -38 -217 -91 -314 -184 -194 -188 -260 -413 -216
-740 82 -616 522 -1121 1126 -1292 176 -50 138 -48 1354 -52 1184 -4 1252 -2
1423 38 382 89 722 324 939 648 65 98 150 273 187 383 77 235 96 519 46 683
-72 231 -251 424 -462 496 -37 13 -69 21 -71 19 -3 -3 -26 -193 -51 -422 -55
-497 -62 -521 -165 -631 -85 -91 -155 -121 -403 -171 -769 -156 -1715 -167
-2518 -30 -174 30 -345 69 -403 91 -114 45 -217 152 -257 269 -14 39 -35 194
-67 485 -54 488 -38 443 -148 410z"/>
<path d="M1005 1766 c35 -308 42 -333 102 -368 83 -49 547 -126 968 -160 195
-16 855 -16 1055 0 419 34 885 112 967 162 56 34 64 63 98 369 l31 283 -45 -6
c-25 -3 -121 -17 -213 -30 -658 -98 -1481 -120 -2198 -61 -239 20 -552 59
-689 85 -29 5 -66 10 -80 10 l-27 0 31 -284z"/>
</g>
</svg>
